<mxfile host="65bd71144e">
    <diagram id="BzPS3JzchcMR_vSxgUfW" name="Page-1">
        <mxGraphModel dx="1030" dy="604" grid="1" gridSize="10" guides="1" tooltips="1" connect="1" arrows="1" fold="1" page="1" pageScale="1" pageWidth="850" pageHeight="1100" math="0" shadow="0">
            <root>
                <mxCell id="0"/>
                <mxCell id="1" parent="0"/>
                <mxCell id="5" value="length" style="ellipse;whiteSpace=wrap;html=1;" parent="1" vertex="1">
                    <mxGeometry x="180" y="40" width="100" height="40" as="geometry"/>
                </mxCell>
                <mxCell id="6" value="" style="edgeStyle=none;html=1;endArrow=none;endFill=0;strokeWidth=3;" parent="1" source="9" target="11" edge="1">
                    <mxGeometry relative="1" as="geometry"/>
                </mxCell>
                <mxCell id="7" value="" style="edgeStyle=none;html=1;endArrow=none;endFill=0;" parent="1" source="9" target="5" edge="1">
                    <mxGeometry relative="1" as="geometry"/>
                </mxCell>
                <mxCell id="8" value="" style="edgeStyle=none;html=1;endArrow=none;endFill=0;jumpSize=6;strokeWidth=3;" parent="1" source="9" target="10" edge="1">
                    <mxGeometry relative="1" as="geometry"/>
                </mxCell>
                <mxCell id="24" value="" style="edgeStyle=none;html=1;startArrow=none;endArrow=none;endFill=0;strokeWidth=3;" parent="1" source="19" target="22" edge="1">
                    <mxGeometry relative="1" as="geometry"/>
                </mxCell>
                <mxCell id="28" value="" style="edgeStyle=none;jumpSize=6;html=1;strokeWidth=3;startArrow=none;startFill=0;endArrow=classic;endFill=1;startSize=6;endSize=5;" parent="1" edge="1">
                    <mxGeometry relative="1" as="geometry">
                        <mxPoint x="228" y="150" as="sourcePoint"/>
                        <mxPoint x="228" y="180" as="targetPoint"/>
                    </mxGeometry>
                </mxCell>
                <mxCell id="9" value="Song" style="rounded=0;whiteSpace=wrap;html=1;" parent="1" vertex="1">
                    <mxGeometry x="170" y="110" width="120" height="40" as="geometry"/>
                </mxCell>
                <mxCell id="10" value="title" style="ellipse;whiteSpace=wrap;html=1;" parent="1" vertex="1">
                    <mxGeometry x="40" y="110" width="100" height="40" as="geometry"/>
                </mxCell>
                <mxCell id="11" value="Written by" style="rhombus;whiteSpace=wrap;html=1;" parent="1" vertex="1">
                    <mxGeometry x="330" y="110" width="100" height="40" as="geometry"/>
                </mxCell>
                <mxCell id="13" value="" style="edgeStyle=none;html=1;endArrow=none;endFill=0;" parent="1" source="15" target="16" edge="1">
                    <mxGeometry relative="1" as="geometry"/>
                </mxCell>
                <mxCell id="14" value="" style="edgeStyle=none;html=1;endArrow=none;endFill=0;" parent="1" source="15" target="11" edge="1">
                    <mxGeometry relative="1" as="geometry"/>
                </mxCell>
                <mxCell id="30" value="" style="edgeStyle=none;jumpSize=6;html=1;strokeWidth=3;startArrow=none;startFill=0;endArrow=classic;endFill=1;startSize=6;endSize=5;" parent="1" source="15" target="29" edge="1">
                    <mxGeometry relative="1" as="geometry"/>
                </mxCell>
                <mxCell id="15" value="&lt;u&gt;Artist&lt;/u&gt;" style="rounded=0;whiteSpace=wrap;html=1;" parent="1" vertex="1">
                    <mxGeometry x="480" y="110" width="120" height="40" as="geometry"/>
                </mxCell>
                <mxCell id="16" value="bio" style="ellipse;whiteSpace=wrap;html=1;" parent="1" vertex="1">
                    <mxGeometry x="630" y="110" width="100" height="40" as="geometry"/>
                </mxCell>
                <mxCell id="17" value="" style="edgeStyle=none;html=1;endArrow=none;endFill=0;strokeWidth=3;" parent="1" source="18" target="15" edge="1">
                    <mxGeometry relative="1" as="geometry"/>
                </mxCell>
                <mxCell id="18" value="name" style="ellipse;whiteSpace=wrap;html=1;" parent="1" vertex="1">
                    <mxGeometry x="490" y="20" width="100" height="40" as="geometry"/>
                </mxCell>
                <mxCell id="21" value="" style="edgeStyle=none;html=1;endArrow=none;endFill=0;strokeWidth=3;" parent="1" source="22" target="23" edge="1">
                    <mxGeometry relative="1" as="geometry"/>
                </mxCell>
                <mxCell id="40" style="edgeStyle=none;jumpSize=6;html=1;exitX=1;exitY=0.5;exitDx=0;exitDy=0;strokeWidth=3;startArrow=none;startFill=0;endArrow=none;endFill=0;startSize=6;endSize=5;" parent="1" source="22" target="39" edge="1">
                    <mxGeometry relative="1" as="geometry"/>
                </mxCell>
                <mxCell id="22" value="Album" style="rounded=0;whiteSpace=wrap;html=1;" parent="1" vertex="1">
                    <mxGeometry x="170" y="250" width="120" height="40" as="geometry"/>
                </mxCell>
                <mxCell id="23" value="title" style="ellipse;whiteSpace=wrap;html=1;" parent="1" vertex="1">
                    <mxGeometry x="40" y="250" width="100" height="40" as="geometry"/>
                </mxCell>
                <mxCell id="19" value="Belongs to" style="rhombus;whiteSpace=wrap;html=1;" parent="1" vertex="1">
                    <mxGeometry x="180" y="180" width="100" height="40" as="geometry"/>
                </mxCell>
                <mxCell id="26" value="" style="edgeStyle=none;html=1;endArrow=none;endFill=0;exitX=0.5;exitY=1;exitDx=0;exitDy=0;" parent="1" source="22" target="27" edge="1">
                    <mxGeometry relative="1" as="geometry">
                        <mxPoint x="310" y="340" as="sourcePoint"/>
                    </mxGeometry>
                </mxCell>
                <mxCell id="27" value="&lt;u&gt;artwork_url&lt;/u&gt;" style="ellipse;whiteSpace=wrap;html=1;" parent="1" vertex="1">
                    <mxGeometry x="180" y="320" width="100" height="40" as="geometry"/>
                </mxCell>
                <mxCell id="29" value="Has a" style="rhombus;whiteSpace=wrap;html=1;" parent="1" vertex="1">
                    <mxGeometry x="490" y="180" width="100" height="40" as="geometry"/>
                </mxCell>
                <mxCell id="33" value="" style="edgeStyle=none;html=1;endArrow=none;endFill=0;strokeWidth=3;" parent="1" source="34" target="35" edge="1">
                    <mxGeometry relative="1" as="geometry"/>
                </mxCell>
                <mxCell id="38" style="edgeStyle=none;jumpSize=6;html=1;exitX=0.5;exitY=0;exitDx=0;exitDy=0;entryX=0.5;entryY=1;entryDx=0;entryDy=0;strokeWidth=3;startArrow=none;startFill=0;endArrow=classic;endFill=1;startSize=6;endSize=5;" parent="1" source="34" target="29" edge="1">
                    <mxGeometry relative="1" as="geometry"/>
                </mxCell>
                <mxCell id="34" value="&lt;u&gt;User Account&lt;/u&gt;" style="rounded=0;whiteSpace=wrap;html=1;" parent="1" vertex="1">
                    <mxGeometry x="480" y="280" width="120" height="40" as="geometry"/>
                </mxCell>
                <mxCell id="35" value="password" style="ellipse;whiteSpace=wrap;html=1;" parent="1" vertex="1">
                    <mxGeometry x="640" y="280" width="100" height="40" as="geometry"/>
                </mxCell>
                <mxCell id="36" value="" style="edgeStyle=none;html=1;endArrow=none;endFill=0;strokeWidth=3;" parent="1" source="37" target="34" edge="1">
                    <mxGeometry relative="1" as="geometry"/>
                </mxCell>
                <mxCell id="37" value="&lt;u&gt;username&lt;/u&gt;" style="ellipse;whiteSpace=wrap;html=1;" parent="1" vertex="1">
                    <mxGeometry x="490" y="380" width="100" height="40" as="geometry"/>
                </mxCell>
                <mxCell id="41" style="edgeStyle=none;jumpSize=6;html=1;exitX=0.65;exitY=0.185;exitDx=0;exitDy=0;entryX=0;entryY=1;entryDx=0;entryDy=0;strokeWidth=1;startArrow=none;startFill=0;endArrow=none;endFill=0;startSize=6;endSize=5;exitPerimeter=0;" parent="1" source="39" target="15" edge="1">
                    <mxGeometry relative="1" as="geometry"/>
                </mxCell>
                <mxCell id="39" value="Belongs to" style="rhombus;whiteSpace=wrap;html=1;" parent="1" vertex="1">
                    <mxGeometry x="330" y="200" width="100" height="40" as="geometry"/>
                </mxCell>
            </root>
        </mxGraphModel>
    </diagram>
</mxfile>